# File produced by Open Asset Import Library (http://www.assimp.sf.net)
# (assimp v3.1.6393133)

mtllib bb.mtl

# vertex positions
v -0.031870 101.447823 -0.032278
v 0.133729 101.447838 -0.152546
v 0.031411 101.447777 -0.226913
v -0.095078 101.447739 -0.226937
v -0.197424 101.447723 -0.152607
v -0.236534 101.447754 -0.032315
v -0.197469 101.447807 0.087990
v -0.095150 101.447868 0.162358
v 0.031339 101.447914 0.162381
v 0.133685 101.447922 0.088051
v 0.172794 101.447891 -0.032240
v 0.141697 77.835960 0.096292
v 0.180807 77.835930 -0.023999
v 0.039352 77.835945 0.170622
v -0.087138 77.835907 0.170599
v -0.189456 77.835846 0.096231
v -0.228521 77.835793 -0.024075
v -0.189412 77.835762 -0.144366
v -0.087066 77.835770 -0.218696
v 0.039423 77.835815 -0.218672
v 0.141742 77.835876 -0.144305
v 12.197124 18.087582 6.465891
v 6.460995 18.087631 12.199907
v 6.467182 -0.145832 12.206270
v 12.203311 -0.145882 6.472255
v 6.454808 36.321083 12.193542
v 12.190938 36.321030 6.459528
v 12.184750 54.554485 6.453164
v 6.448619 54.554543 12.187180
v -7.080684 18.083038 12.197412
v -12.206782 18.079510 7.069424
v -12.200595 -0.153957 7.075788
v -7.074498 -0.150429 12.203776
v -12.212969 36.312958 7.063060
v -7.086872 36.316486 12.191047
v -7.093059 54.549946 12.184684
v -12.219157 54.546417 7.056698
v 7.581369 65.552971 4.543095
v 4.540354 65.553001 7.582990
v 5.492620 65.554123 9.883165
v 9.881192 65.554085 5.496210
v -9.917054 54.543217 -4.349216
v -7.617054 54.543999 -4.348792
v -7.610867 36.310539 -4.342428
v -9.910901 36.410866 -4.342886
v -12.217705 54.543671 -0.812251
v -9.917705 54.544453 -0.811827
v -9.911553 36.412098 -0.805499
v -12.211518 36.310211 -0.805887
v -7.598493 -0.156376 -4.329701
v -7.604680 18.077087 -4.336064
v -7.604077 18.075951 -7.606481
v -7.597890 -0.157513 -7.600117
v -7.610263 36.309399 -7.612844
v -7.616451 54.542854 -7.619207
v 7.593532 36.314560 -7.610042
v 7.587345 54.548016 -7.616407
v 7.586770 54.549103 -4.501690
v 7.592958 36.315647 -4.495327
v 7.599144 18.082195 -4.488964
v 7.599719 18.081108 -7.603680
v 7.605906 -0.152355 -7.597316
v 7.605331 -0.151268 -4.482600
v -7.620787 65.544708 -4.352631
v -7.622639 72.776291 -7.625571
v -7.622539 65.548019 5.148322
v -5.190560 65.549698 7.581197
v -5.193015 72.782417 7.578673
v -7.624992 72.780746 5.145797
v 7.578915 72.785698 4.540571
v 4.537899 72.785721 7.580465
v 7.583037 65.549812 -4.505531
v 7.580549 72.782600 -4.319090
v 7.581158 72.781448 -7.622769
v 4.537886 72.781555 -4.369771
v 1.936058 78.200623 4.978099
v 1.936050 78.198265 -1.772141
v -2.721192 78.196686 -1.772999
v -2.629807 78.199074 4.977258
v -5.354798 72.778198 -4.371593
v -7.623239 72.777428 -4.369511
v -9.921342 65.544975 -1.334628
v -9.920787 65.543922 -4.353055
v -9.918981 54.546864 6.104431
v -12.205332 18.076763 -0.799524
v -12.199143 -0.156700 -0.793161
v 12.198520 18.084938 -1.103791
v 12.204708 -0.148521 -1.097427
v 12.192333 36.318390 -1.110154
v 12.186145 54.551846 -1.116518
v -9.904645 17.975204 -4.336452
v -9.898492 -0.157158 -4.330125
v -9.922714 65.547569 6.100591
v -6.143676 65.550171 9.881021
v 9.882473 65.551659 -1.445984
v 9.886769 54.549885 -4.501268
v 9.892957 36.316425 -4.494904
v 9.899144 18.082977 -4.488540
v 9.905331 -0.150490 -4.482177
v -6.139944 54.549465 9.884859
v 5.496353 54.553413 9.887003
v 9.884926 54.553371 5.500049
v 9.886145 54.551064 -1.116942
v 9.883036 65.550591 -4.505107
v -9.905297 17.976440 -0.799065
v -9.899143 -0.155922 -0.792737
v 9.892333 36.317608 -1.110578
v 9.898520 18.084160 -1.104214
v 9.904708 -0.149303 -1.097851

# UV coordinates
vt 0.769485 0.889672
vt 0.772246 0.886310
vt 0.773266 0.889025
vt 0.772841 0.891987
vt 0.771135 0.894064
vt 0.768798 0.894464
vt 0.766724 0.893033
vt 0.765704 0.890318
vt 0.766128 0.887357
vt 0.767835 0.885279
vt 0.770172 0.884879
vt 0.642152 0.528250
vt 0.643917 0.528250
vt 0.643917 0.939907
vt 0.642153 0.939907
vt 0.640388 0.528250
vt 0.640388 0.939907
vt 0.638623 0.528250
vt 0.638623 0.939907
vt 0.636859 0.528250
vt 0.636859 0.939907
vt 0.635094 0.528250
vt 0.635094 0.939907
vt 0.633329 0.528250
vt 0.633330 0.939907
vt 0.631565 0.528250
vt 0.631565 0.939907
vt 0.629800 0.528250
vt 0.629800 0.939907
vt 0.628035 0.528250
vt 0.628036 0.939907
vt 0.626271 0.528250
vt 0.626271 0.939907
vt 0.135008 0.378509
vt 0.006994 0.378509
vt 0.006994 0.007768
vt 0.135008 0.007768
vt 1.006994 0.378509
vt 1.006994 0.007768
vt 1.135008 0.007768
vt 1.135008 0.378509
vt 1.359413 0.380786
vt 1.146481 0.380786
vt 1.146481 0.010041
vt 1.359413 0.010041
vt 0.744614 0.250245
vt 0.744614 0.349361
vt 0.700323 0.349361
vt 0.700323 0.250245
vt 0.795522 0.862862
vt 0.749807 0.862862
vt 0.749807 0.445282
vt 0.795522 0.445282
vt 1.792317 0.435567
vt 1.750167 0.435566
vt 1.750167 0.003480
vt 1.792317 0.003480
vt 1.936832 0.550490
vt 1.936832 0.982577
vt 1.994798 0.982577
vt 1.994798 0.550490
vt 0.994798 0.550490
vt 0.994798 0.982577
vt 0.936832 0.982577
vt 0.936832 0.550490
vt 0.212576 0.626655
vt 0.273042 0.780267
vt 0.273042 0.392125
vt 0.212576 0.392125
vt 1.553688 0.013184
vt 1.635220 0.013184
vt 1.635220 0.184405
vt 1.553688 0.184405
vt 0.553686 0.013180
vt 0.635222 0.013180
vt 0.635222 0.184408
vt 0.553686 0.184408
vt 0.138146 0.584006
vt 0.008308 0.584006
vt 0.008308 0.387907
vt 0.138146 0.387907
vt 0.547547 0.800682
vt 0.283611 0.800682
vt 0.283611 0.385920
vt 0.547547 0.385920
vt 0.182132 0.881459
vt 0.182132 0.816421
vt 0.402690 0.816422
vt 0.402690 0.881460
vt 0.816487 0.552507
vt 0.928431 0.552507
vt 0.928431 0.771370
vt 0.816487 0.771370
vt 0.638451 0.361766
vt 0.553948 0.361766
vt 0.553948 0.198281
vt 0.638451 0.198281
vt 1.928431 0.552507
vt 1.928431 0.771369
vt 1.816487 0.771369
vt 1.816487 0.552507
vt 0.145109 0.390217
vt 0.205872 0.390217
vt 0.205872 0.439684
vt 0.700323 0.866059
vt 0.744614 0.938426
vt 0.700323 0.938426
vt 0.649893 0.739815
vt 0.695336 0.739815
vt 0.695336 0.930860
vt 0.649893 0.930860
vt 0.490288 0.018006
vt 0.490288 0.368779
vt 0.368712 0.368779
vt 0.368712 0.018006
vt 1.368713 0.373329
vt 1.368713 0.013456
vt 1.490287 0.013456
vt 1.490287 0.373329
vt 1.490625 0.013570
vt 1.489949 0.373443
vt 1.368375 0.373214
vt 1.369051 0.013342
vt 1.491066 0.373063
vt 1.369493 0.373590
vt 1.367934 0.013721
vt 1.489506 0.013194
vt 0.359413 0.010041
vt 0.359413 0.380786
vt 0.146481 0.380786
vt 0.146481 0.010041
vt 0.005361 0.595715
vt 0.135053 0.595715
vt 0.135053 0.831390
vt 0.005361 0.831390
vt 1.810977 0.784823
vt 1.922920 0.784823
vt 1.922920 0.953620
vt 1.810977 0.953620
vt 0.922920 0.784823
vt 0.922920 0.953620
vt 0.810977 0.953620
vt 0.810977 0.784823
vt 1.547537 0.791007
vt 1.283621 0.791007
vt 1.283621 0.395522
vt 1.547537 0.395522
vt 1.795522 0.862862
vt 1.749807 0.862862
vt 1.749807 0.445282
vt 1.795522 0.445282
vt 1.749807 0.862863
vt 0.700323 0.687801
vt 0.700323 0.617872
vt 0.744614 0.617872
vt 0.744614 0.687801
vt 0.700323 0.083883
vt 0.744614 0.010533
vt 1.795522 0.862863
vt 1.749807 0.445283
vt 0.500593 0.277013
vt 0.500593 0.016324
vt 0.542743 0.016324
vt 0.542743 0.277013
vt 1.934287 0.012282
vt 1.934441 0.246448
vt 1.993392 0.246409
vt 1.993238 0.012243
vt 0.419158 0.927535
vt 0.419158 0.815426
vt 0.610783 0.815426
vt 0.610783 0.927535
vt 0.799971 0.540462
vt 0.799971 0.258641
vt 0.997227 0.258640
vt 0.997227 0.540462
vt 1.419158 0.927535
vt 1.419158 0.815426
vt 1.610783 0.815426
vt 1.610783 0.927535
vt 0.934364 0.012305
vt 0.934364 0.246472
vt 0.803641 0.246472
vt 0.803641 0.012305
vt 1.500495 0.016324
vt 1.542645 0.016324
vt 1.542645 0.277013
vt 1.500495 0.277013
vt 0.649893 0.644709
vt 0.695336 0.644709
vt 0.649893 0.319871
vt 0.695336 0.319871
vt 0.649893 0.193892
vt 0.695336 0.193892
vt 0.649893 0.010533
vt 0.695336 0.010533
vt 0.750167 0.435566
vt 0.750167 0.003480
vt 0.792317 0.003480
vt 0.792317 0.435567
vt 1.792317 0.435566
vt 0.621075 0.455677
vt 0.621191 0.725142
vt 0.559490 0.725152
vt 0.559373 0.455687
vt 1.622408 0.456073
vt 1.622408 0.724756
vt 1.560709 0.724756
vt 1.560709 0.456073
vt 0.993315 0.246472
vt 0.993315 0.012305
vt 0.700323 0.010575
vt 1.212576 0.626655
vt 1.273041 0.780267
vt 1.212576 0.780267
vt 1.803564 0.012368
vt 1.803718 0.246534
vt 1.008310 0.584004
vt 1.138145 0.584004
vt 1.138145 0.387909
vt 1.008310 0.387909
vt 1.402690 0.816422
vt 1.402690 0.881459
vt 1.182132 0.881459
vt 1.182132 0.816422
vt 0.145109 0.721021
vt 0.205872 0.654928
vt 0.205872 0.721021
vt 0.212576 0.780267
vt 1.273042 0.392125
vt 1.212576 0.392124

# vertex normals
vn -0.000339 1.000000 -0.000372
vn -0.000339 1.000000 -0.000349
vn -0.000339 1.000000 -0.000368
vn -0.000339 1.000000 -0.000388
vn -0.000339 1.000000 -0.000426
vn 0.808909 0.000480 0.587934
vn 1.000000 0.000339 0.000185
vn 0.308842 0.000437 0.951113
vn -0.309192 0.000227 0.951000
vn -0.809125 -0.000069 0.587636
vn -1.000000 -0.000339 -0.000184
vn -0.808909 -0.000480 -0.587934
vn -0.308842 -0.000437 -0.951113
vn 0.309192 -0.000227 -0.951000
vn 0.809126 0.000069 -0.587636
vn 0.706976 0.000487 0.707237
vn -0.707237 0.000007 0.706976
vn -0.707237 0.000007 0.706977
vn -0.000184 0.000349 1.000000
vn -0.000339 1.000000 -0.000346
vn 0.000184 -0.000349 -1.000000
vn 1.000000 0.000339 0.000184
vn 0.901377 0.433036 -0.000152
vn -0.000339 1.000000 -0.000348
vn -0.901588 0.432428 0.012053
vn -0.000229 0.138312 0.990389
vn -0.000229 0.137897 0.990447
vn -0.000313 0.433044 0.901373
vn 0.000019 0.432415 -0.901675
vn -0.000339 1.000000 -0.000345
vn -0.000339 1.000000 -0.000350

# Mesh
g pCylinder5
usemtl initialShadingGroup
f 1/1/1 2/2/2 3/3/2
f 1/1/1 3/3/2 4/4/2
f 1/1/1 4/4/2 5/5/2
f 1/1/1 5/5/2 6/6/2
f 1/1/1 6/6/2 7/7/3
f 1/1/1 7/7/3 8/8/4
f 1/1/1 8/8/4 9/9/3
f 1/1/1 9/9/3 10/10/5
f 1/1/1 10/10/5 11/11/5
f 1/1/1 11/11/5 2/2/2
f 10/15/6 12/12/6 13/13/7
f 13/13/7 11/14/7 10/15/6
f 9/17/8 14/16/8 12/12/6
f 12/12/6 10/15/6 9/17/8
f 8/19/9 15/18/9 14/16/8
f 14/16/8 9/17/8 8/19/9
f 7/21/10 16/20/10 15/18/9
f 15/18/9 8/19/9 7/21/10
f 6/23/11 17/22/11 16/20/10
f 16/20/10 7/21/10 6/23/11
f 5/25/12 18/24/12 17/22/11
f 17/22/11 6/23/11 5/25/12
f 4/27/13 19/26/13 18/24/12
f 18/24/12 5/25/12 4/27/13
f 3/29/14 20/28/14 19/26/13
f 19/26/13 4/27/13 3/29/14
f 2/31/15 21/30/15 20/28/14
f 20/28/14 3/29/14 2/31/15
f 11/33/7 13/32/7 21/30/15
f 21/30/15 2/31/15 11/33/7
f 25/37/16 22/34/16 23/35/16
f 23/35/16 24/36/16 25/37/16
f 27/41/16 26/38/16 23/39/16
f 23/39/16 22/40/16 27/41/16
f 27/40/16 28/41/16 29/38/16
f 29/38/16 26/39/16 27/40/16
f 33/40/17 30/41/17 31/38/17
f 31/38/17 32/39/17 33/40/17
f 35/41/18 34/38/18 31/39/17
f 31/39/17 30/40/17 35/41/18
f 35/40/18 36/41/18 37/38/18
f 37/38/18 34/39/18 35/40/18
f 24/45/19 23/42/19 30/43/19
f 30/43/19 33/44/19 24/45/19
f 26/45/19 29/42/19 36/43/19
f 36/43/19 35/44/19 26/45/19
f 41/49/2 38/46/2 39/47/20
f 39/47/20 40/48/20 41/49/2
f 45/53/21 42/50/21 43/51/21
f 43/51/21 44/52/21 45/53/21
f 49/57/21 46/54/21 47/55/21
f 47/55/21 48/56/21 49/57/21
f 53/61/11 50/58/11 51/59/11
f 51/59/11 52/60/11 53/61/11
f 54/60/11 52/61/11 51/58/11
f 51/58/11 44/59/11 54/60/11
f 54/61/11 44/58/11 43/59/11
f 43/59/11 55/60/11 54/61/11
f 59/65/22 56/62/22 57/63/22
f 57/63/22 58/64/22 59/65/22
f 56/60/22 59/59/22 60/58/22
f 60/58/22 61/61/22 56/60/22
f 63/58/22 62/61/22 61/60/22
f 61/60/22 60/59/22 63/58/22
f 43/69/11 64/66/11 65/67/11
f 65/67/11 55/68/11 43/69/11
f 69/73/18 66/70/18 67/71/18
f 67/71/18 68/72/18 69/73/18
f 71/77/16 39/74/16 38/75/16
f 38/75/16 70/76/16 71/77/16
f 38/81/22 72/78/22 73/79/22
f 73/79/22 70/80/22 38/81/22
f 55/85/21 65/82/21 74/83/21
f 74/83/21 57/84/21 55/85/21
f 70/89/2 73/86/2 75/87/2
f 75/87/2 71/88/2 70/89/2
f 77/93/23 76/90/23 71/91/23
f 71/91/23 75/92/23 77/93/23
f 76/97/24 77/94/24 78/95/24
f 78/95/24 79/96/24 76/97/24
f 78/101/25 80/98/25 68/99/25
f 68/99/25 79/100/25 78/101/25
f 65/102/2 81/103/2 80/104/2
f 82/105/2 64/106/2 83/107/2
f 46/111/2 37/108/2 84/109/2
f 84/109/2 47/110/2 46/111/2
f 49/115/11 34/112/11 37/113/11
f 37/113/11 46/114/11 49/115/11
f 34/119/11 49/116/11 85/117/11
f 85/117/11 31/118/11 34/119/11
f 86/123/11 32/120/11 31/121/11
f 31/121/11 85/122/11 86/123/11
f 88/127/22 87/124/22 22/125/22
f 22/125/22 25/126/22 88/127/22
f 22/117/22 87/118/22 89/119/22
f 89/119/22 27/116/22 22/117/22
f 89/118/22 90/119/22 28/116/22
f 28/116/22 27/117/22 89/118/22
f 30/131/19 23/128/19 26/129/19
f 26/129/19 35/130/19 30/131/19
f 71/135/27 68/132/26 67/133/19
f 67/133/19 39/134/19 71/135/27
f 76/139/28 79/136/28 68/137/26
f 68/137/26 71/138/27 76/139/28
f 77/143/29 75/140/29 80/141/29
f 80/141/29 78/142/29 77/143/29
f 54/147/21 55/144/21 57/145/21
f 57/145/21 56/146/21 54/147/21
f 54/144/21 56/145/21 61/146/21
f 61/146/21 52/147/21 54/144/21
f 53/147/21 52/144/21 61/145/21
f 61/145/21 62/146/21 53/147/21
f 92/151/21 91/148/21 51/149/21
f 51/149/21 50/150/21 92/151/21
f 51/150/21 91/151/21 45/148/21
f 45/148/21 44/152/21 51/150/21
f 66/156/24 93/153/24 94/154/30
f 94/154/30 67/155/30 66/156/24
f 67/155/30 94/154/30 40/48/20
f 40/48/20 39/47/20 67/155/30
f 72/158/2 38/46/2 41/49/2
f 41/49/2 95/157/2 72/158/2
f 59/151/21 58/148/21 96/149/21
f 96/149/21 97/150/21 59/151/21
f 59/159/21 97/149/21 98/150/21
f 98/150/21 60/151/21 59/159/21
f 63/151/21 60/148/21 98/149/21
f 98/149/21 99/160/21 63/151/21
f 83/164/21 64/161/21 43/162/21
f 43/162/21 42/163/21 83/164/21
f 42/168/11 47/165/11 82/166/11
f 82/166/11 83/167/11 42/168/11
f 93/172/17 84/169/17 100/170/17
f 100/170/17 94/171/17 93/172/17
f 94/176/19 100/173/19 101/174/19
f 101/174/19 40/175/19 94/176/19
f 40/180/16 101/177/16 102/178/16
f 102/178/16 41/179/16 40/180/16
f 102/184/22 103/181/22 95/182/22
f 95/182/22 41/183/22 102/184/22
f 104/188/21 96/185/21 58/186/21
f 58/186/21 72/187/21 104/188/21
f 86/57/21 85/54/21 105/55/21
f 105/55/21 106/56/21 86/57/21
f 105/56/21 85/57/21 49/54/21
f 49/54/21 48/55/21 105/56/21
f 84/109/2 37/108/2 36/189/24
f 36/189/24 100/190/24 84/109/2
f 100/190/24 36/189/24 29/191/24
f 29/191/24 101/192/24 100/190/24
f 101/192/24 29/191/24 28/193/31
f 28/193/31 102/194/31 101/192/24
f 103/196/2 102/194/31 28/193/31
f 28/193/31 90/195/2 103/196/2
f 107/57/21 103/54/21 90/55/21
f 90/55/21 89/56/21 107/57/21
f 107/200/21 89/197/21 87/198/21
f 87/198/21 108/199/21 107/200/21
f 109/57/21 108/201/21 87/55/21
f 87/55/21 88/56/21 109/57/21
f 92/205/11 106/202/11 105/203/11
f 105/203/11 91/204/11 92/205/11
f 91/209/11 105/206/11 48/207/11
f 48/207/11 45/208/11 91/209/11
f 45/208/11 48/207/11 47/206/11
f 47/206/11 42/209/11 45/208/11
f 107/207/22 97/208/22 96/209/22
f 96/209/22 103/206/22 107/207/22
f 97/208/22 107/207/22 108/206/22
f 108/206/22 98/209/22 97/208/22
f 109/206/22 99/209/22 98/208/22
f 98/208/22 108/207/22 109/206/22
f 96/211/22 104/210/22 95/182/22
f 95/182/22 103/181/22 96/211/22
f 72/158/2 95/157/2 104/212/2
f 72/213/22 74/214/22 73/215/22
f 82/166/11 47/165/11 84/216/11
f 84/216/11 93/217/11 82/166/11
f 82/105/2 93/153/24 66/156/24
f 66/156/24 64/106/2 82/105/2
f 69/221/11 81/218/11 64/219/11
f 64/219/11 66/220/11 69/221/11
f 68/225/2 80/222/2 81/223/2
f 81/223/2 69/224/2 68/225/2
f 74/226/2 75/227/2 73/228/2
f 74/226/2 65/102/2 80/104/2
f 80/104/2 75/227/2 74/226/2
f 64/66/11 81/229/11 65/67/11
f 58/231/22 57/230/22 74/214/22
f 74/214/22 72/213/22 58/231/22
